<?xml version="1.0" standalone="no"?>
<!DOCTYPE svg PUBLIC "-//W3C//DTD SVG 20010904//EN"
 "http://www.w3.org/TR/2001/REC-SVG-20010904/DTD/svg10.dtd">
<svg version="1.0" xmlns="http://www.w3.org/2000/svg"
 width="1472.000000pt" height="832.000000pt" viewBox="0 0 1472.000000 832.000000"
 preserveAspectRatio="xMidYMid meet">

<g transform="translate(0.000000,832.000000) scale(0.100000,-0.100000)"
fill="#000000" stroke="none">
<path d="M2276 5004 c-302 -55 -528 -252 -623 -544 -24 -74 -29 -283 -8 -376
66 -303 317 -547 617 -603 108 -19 232 -24 338 -11 125 14 306 58 375 91 l50
24 0 375 0 375 -335 3 c-184 1 -354 0 -377 -3 l-43 -6 0 -150 0 -149 200 0
200 0 0 -103 c0 -141 2 -139 -146 -145 -91 -3 -134 -1 -184 12 -196 50 -327
185 -361 375 -40 225 122 462 349 510 74 16 207 14 277 -4 33 -8 91 -31 128
-50 38 -19 72 -33 76 -30 13 7 201 232 201 239 0 4 -32 27 -71 52 -174 113
-434 159 -663 118z"/>
<path d="M3235 4978 c-3 -7 -4 -341 -3 -743 l3 -730 178 -3 177 -2 0 590 0
590 151 0 c90 0 168 -5 193 -12 53 -16 130 -92 139 -137 20 -99 -2 -200 -54
-248 -48 -43 -96 -55 -249 -60 -80 -2 -151 -6 -157 -8 -9 -3 -7 -14 8 -37 12
-18 63 -105 114 -193 91 -158 153 -258 250 -405 l50 -75 198 -3 c108 -1 197 1
197 5 0 11 -134 221 -214 337 -42 59 -76 109 -76 111 0 2 24 17 53 34 114 65
208 189 242 316 21 83 19 225 -4 303 -51 166 -172 287 -348 349 l-78 28 -383
3 c-310 3 -383 1 -387 -10z"/>
<path d="M5096 4982 c-2 -4 -46 -115 -96 -247 -50 -132 -137 -355 -192 -495
-224 -572 -278 -712 -278 -727 0 -10 41 -13 184 -13 l184 0 30 73 c17 39 60
150 96 245 36 94 95 247 130 340 35 92 79 209 97 260 22 64 35 89 40 79 9 -14
113 -299 129 -349 l8 -27 -96 -3 -96 -3 -47 -122 c-44 -117 -45 -123 -25 -123
11 0 100 -1 196 -3 l175 -3 51 -135 c28 -74 60 -155 72 -181 l21 -48 185 0
c102 0 186 3 186 6 0 7 -64 179 -90 244 -38 92 -305 762 -392 985 -49 127 -94
236 -100 243 -12 14 -363 18 -372 4z"/>
<path d="M6190 4246 l0 -746 180 0 180 0 0 590 0 590 88 1 c164 2 205 -2 259
-26 75 -34 105 -83 111 -184 5 -92 -9 -132 -68 -185 -51 -46 -93 -58 -232 -63
-65 -3 -118 -7 -118 -8 0 -2 20 -74 45 -161 25 -86 45 -159 45 -162 0 -10 227
7 285 23 192 50 338 187 401 375 25 76 25 254 0 325 -63 175 -179 289 -356
347 -61 21 -88 22 -442 26 l-378 3 0 -745z"/>
<path d="M7640 4828 l0 -161 350 7 c193 4 350 4 350 2 0 -6 -104 -144 -209
-276 -124 -157 -175 -222 -227 -290 -28 -36 -111 -141 -184 -235 -147 -186
-155 -204 -143 -323 l6 -52 696 2 696 3 0 150 0 150 -412 2 c-227 1 -414 4
-415 6 -3 4 392 516 509 662 68 85 383 504 383 509 0 3 -315 6 -700 6 l-700 0
0 -162z"/>
<path d="M9380 4245 l0 -745 185 0 185 0 -2 743 -3 742 -182 3 -183 2 0 -745z"/>
<path d="M10494 4955 c-7 -19 -14 -37 -14 -39 0 -3 -114 -293 -254 -643 -140
-351 -266 -668 -280 -705 l-25 -68 189 0 189 0 15 29 c9 16 40 93 70 172 72
189 154 400 203 524 22 55 52 136 67 180 33 101 42 117 52 90 4 -11 22 -58 39
-105 60 -156 94 -258 88 -264 -4 -3 -46 -6 -94 -6 l-87 0 -41 -105 c-23 -58
-42 -115 -44 -127 l-2 -23 178 3 c172 2 217 -4 217 -29 0 -6 28 -84 61 -175
l62 -164 188 0 c138 0 189 3 189 12 0 15 -76 210 -262 678 -85 212 -169 423
-187 470 -19 47 -56 140 -83 208 l-50 122 -185 0 -184 0 -15 -35z"/>
<path d="M11630 4728 c0 -145 -3 -480 -7 -745 l-6 -483 187 0 186 0 2 430 3
431 105 -156 c58 -86 188 -279 290 -430 l185 -274 193 -1 192 0 0 623 c0 343
-3 679 -7 745 l-6 122 -181 0 -181 0 1 -445 c0 -245 -1 -445 -2 -445 -1 0 -73
106 -161 235 -87 129 -221 328 -298 442 l-140 208 -178 3 -177 2 0 -262z"/>
</g>
</svg>
